<svg xml:space="preserve" style="max-height: 500px" viewBox="0 94.952 199.0677966101695 336.33599999999996" y="0px" x="0px" xmlns:xlink="http://www.w3.org/1999/xlink" xmlns="http://www.w3.org/2000/svg" id="Capa_1" version="1.1" width="199.0677966101695" height="336.33599999999996">
<style type="text/css">
	.st0{fill:#545438;}
	.st1{fill:#D9D6C3;}
	.st2{fill:#8C8C56;}
	.st3{fill:#BCB398;}
	.st4{fill:#888468;}
	.st5{fill:#9EA08D;}
	.st6{fill:#F5F9ED;}
	.st7{fill:#A57D4C;}
	.st8{fill:#9B8B7A;}
	.st9{fill:#8E998B;}
	.st10{fill:#6B7368;}
	.st11{fill:#B39976;}
	.st12{fill:#EEEDEB;}
	.st13{fill:#777751;}
	.st14{fill:#F5F9E8;}
	.st15{fill:#FBF8F2;}
	.st16{fill:#AEA79E;}
	.st17{opacity:0.5;}
	.st18{fill:url(#);}
	.st19{fill:none;stroke:#FBF8F2;stroke-miterlimit:10;}
	.st20{fill:none;stroke:#545438;stroke-width:2;stroke-miterlimit:10;}
	.st21{fill:none;stroke:#777751;stroke-width:3;stroke-miterlimit:10;}
	.st22{opacity:0.1;}
	.st23{fill:#FFFFFF;}
	.st24{opacity:0.3;}
</style>
<g>
	<path d="M174.32,170.83c-4.67,5.84-10.88,10.74-16.22,15.54c-11.13,10-23.27,18.33-37.25,24.09&#10;&#9;&#9;c-7.2,2.96-13.73,7.56-20.56,11.42c-1.2,0.68-2.18,1.99-4.24,1.26c1.76-4.65,5.49-7.7,8.78-10.95&#10;&#9;&#9;c13.06-12.91,28.38-22.92,41.71-35.31c11.27-10.47,17.28-26.56,15.11-41.85c0.77,5.41-4.67,15.06-6.92,19.86&#10;&#9;&#9;c-3.19,6.8-7.13,13.24-11.72,19.18c-9.8,12.66-24.47,20.45-36.38,31.14c2.22-4.49,5.71-8.02,9.45-11.27&#10;&#9;&#9;c3.61-3.14,6.27-6.77,9.25-10.53c6.55-8.28,14.64-16.68,19.74-25.96c-1.92,3.49-6.32,6.78-9.05,9.71&#10;&#9;&#9;c-3.22,3.45-6.43,6.91-9.65,10.36c-5.47,5.87-10.22,12.47-15.87,18.01c-11.54,11.31-22.79,23.28-29.8,38.03&#10;&#9;&#9;c-3.2,6.74-5.72,13.72-8.49,20.63c-6.37,15.92-12.38,32.14-27.29,43.33c4.78,0.02,11.19-3.32,12.74-6.39&#10;&#9;&#9;c5.56-11.06,12.44-21.48,16.01-33.5c5.08-17.12,18.12-26.98,32.41-35.91c12.65-7.9,27.45-11.64,39.38-20.91&#10;&#9;&#9;c19.03-14.79,38.02-29.14,42.78-54.09c2.62-13.71,1.68-27.83,0.74-41.76c-1.99,13.86-3.97,27.72-5.96,41.59&#10;&#9;&#9;c-0.73,5.12-1.48,10.28-3.31,15.11C178.45,165,176.56,168.02,174.32,170.83z" class="st0"/>
	<path d="M108.6,407.16c-17.56,5.86-34.89,12.11-53.21,14.19c-29.43,3.34-58.07-1.57-86.33-9.38&#10;&#9;&#9;c-5.43-1.5-11.03-1.93-16.58-1.98c-16.29-0.13-23.77,11-30.03,23.82c-10.25,21-17.26,43.4-28.08,64.15c-2.09,4-4.1,8.05-6.77,11.76&#10;&#9;&#9;c1.49-7.28,5.62-13.34,8.72-19.86c5.06-10.64,9.25-21.6,13.3-32.67c5.76-15.71,13.66-30.45,23.02-44.45&#10;&#9;&#9;c7.01-10.5,16.04-19.3,23.42-29.5c-4.3,9.15-10.98,16.7-16.87,25.35c28.5-11.67,57.83-12.25,87.59-7.97&#10;&#9;&#9;c-7.53-0.05-15.07-0.28-22.6-0.11c-7.63,0.18-15.25-1.3-22.89,0.19c-7.57,1.47-15.13,2.88-23.69,5.64&#10;&#9;&#9;c20.79,5.7,39.89,9.8,60.4,5.36c14.21-3.08,29.26-0.07,43.87-2.17c7.31-1.05,14.7-1.54,22.11-3.08&#10;&#9;&#9;c-15.84-3.36-31.98-4.35-47.98-6.38C60.54,398.36,84.36,404.19,108.6,407.16z M9.49,416.18c28.03,7.01,58.9,1.95,77.11-6.04&#10;&#9;&#9;C60.99,413.53,35.1,413.24,9.49,416.18z" class="st0"/>
	<path d="M-24.68,361.54c1.36-6.28,7.16-8.79,11.16-12.71c15.17-14.82,30.26-29.81,48.91-40.45&#10;&#9;&#9;c1.03-0.59,2.11-1.1,4.06-2.1c-1,2.95-2.94,3.68-4.39,4.76c-1.65,1.22-3.53,2.13-5.23,3.29c-18.28,12.51-33.95,28.06-50,43.16&#10;&#9;&#9;c-1.49,1.4-3.12,2.64-4.69,3.95L-24.68,361.54z" class="st0"/>
</g>
</svg>