<svg xml:space="preserve" style="max-height: 500px" viewBox="44.37341772151899 84.24 361.99367088607596 1090.44" y="0px" x="0px" xmlns:xlink="http://www.w3.org/1999/xlink" xmlns="http://www.w3.org/2000/svg" id="Capa_1" version="1.1" width="361.99367088607596" height="1090.44">
<style type="text/css">
	.st0{fill:#545438;}
	.st1{fill:#D9D6C3;}
	.st2{fill:#8C8C56;}
	.st3{fill:#BCB398;}
	.st4{fill:#888468;}
	.st5{fill:#9EA08D;}
	.st6{fill:#F5F9ED;}
	.st7{fill:#A57D4C;}
	.st8{fill:#9B8B7A;}
	.st9{fill:#8E998B;}
	.st10{fill:#6B7368;}
	.st11{fill:#B39976;}
	.st12{fill:#EEEDEB;}
	.st13{fill:#777751;}
	.st14{fill:#F5F9E8;}
	.st15{fill:#FBF8F2;}
	.st16{fill:#AEA79E;}
	.st17{opacity:0.5;}
	.st18{fill:url(#);}
	.st19{fill:none;stroke:#FBF8F2;stroke-miterlimit:10;}
	.st20{fill:none;stroke:#545438;stroke-width:2;stroke-miterlimit:10;}
	.st21{fill:none;stroke:#777751;stroke-width:3;stroke-miterlimit:10;}
	.st22{opacity:0.1;}
	.st23{fill:#FFFFFF;}
	.st24{opacity:0.3;}
</style>
<g>
	<g>
		<path d="M142.73,711.66c6.91,7.67,12.8,16.26,21.09,22.68c5.79,4.49,12.79,6.69,18.86,10.71&#10;&#9;&#9;&#9;c14.76,9.76,31.59,15.74,46.67,25.95c-0.04-2.39-1.33-2.9-2.26-3.59c-11.15-8.3-23.68-14.16-35.99-20.44&#10;&#9;&#9;&#9;c-16.27-8.29-32.17-17.17-42.58-33.07c-0.75-1.14-2.47-2.05-1.38-3.66c0.75-1.1,2.24-0.76,3.46-0.73&#10;&#9;&#9;&#9;c21.13,0.59,39.3,8.13,53.17,24.22c11.47,13.3,22.45,27.07,33.07,41.06c14.59,19.21,31.52,34.92,55.36,41.89&#10;&#9;&#9;&#9;c17.87,5.22,35.67,10.76,51.54,20.98c0.2,0.13,0.67-0.16,1.02-0.27c-0.3-1.58-1.5-2.34-2.73-3.16&#10;&#9;&#9;&#9;c-12.33-8.25-25.85-13.75-40.1-17.69c-21.34-5.9-40.47-15.36-54.33-33.57c-6.87-9.03-14.54-17.46-21.63-26.33&#10;&#9;&#9;&#9;c-1.66-2.08-4.03-4-4.42-7.6c6.8,3.77,13.17,7.05,19.3,10.74c12.56,7.57,27.33,10.67,39.2,19.68&#10;&#9;&#9;&#9;c10.41,7.91,23.59,10.22,34.55,17.78c18.78,12.96,30.59,30.11,37.75,51.11c1.02,2.99,3.15,5.85,2.41,10.03&#10;&#9;&#9;&#9;c-1.49-1.33-2.65-2.35-3.8-3.39c-7.42-6.66-15.05-13.09-24.87-15.9c-13.9-3.99-27.92-7.57-41.81-11.59&#10;&#9;&#9;&#9;c-7.03-2.03-14.12-3.19-21.41-3.25c-9.54-0.07-18.99-1.05-28.46-2.13c-4.11-0.47-8.42-1.11-13.21,1.47&#10;&#9;&#9;&#9;c15.37,9.18,30.51,16.22,48.24,15.38c19.34-0.91,38.3,0.72,57.11,6.01c10.89,3.06,19.4,8.62,26.78,16.73&#10;&#9;&#9;&#9;c2.92,3.21,3.82,6.41,2.62,10.73c-2.15,7.77-4.01,15.64-5.47,23.57c-4.68,25.43-9.75,50.75-17.07,75.6&#10;&#9;&#9;&#9;c-10.71,36.34-21.94,72.45-39.43,106.27c-3.33,6.43-6.63,12.88-9.95,19.32l-1.96-0.43c1.78-8.88,0.36-17.61-0.36-26.34&#10;&#9;&#9;&#9;c-1.37-16.45-0.87-33.04-4.96-49.27c-6.38-25.3-15.93-49.57-23.52-74.47c-3.14-10.29-6.72-20.41-10.87-30.34&#10;&#9;&#9;&#9;c-0.53-1.27-0.88-3.34-2.76-2.54c-2.09,0.88-0.39,2.4,0.1,3.6c4.89,11.99,7.05,24.64,8.6,37.37c2.23,18.31,0.62,36.79,2.09,55.16&#10;&#9;&#9;&#9;c1.01,12.61,2.14,25.1,6.18,37.22c4.61,13.85,11.65,26.52,18.59,39.21c5.2,9.51,5.38,18.73,1.55,28.55&#10;&#9;&#9;&#9;c-6.47,16.6-14.45,32.46-22.52,48.32c-0.33,0.66-0.67,1.25-1.01,1.8l2.42,0.09c0.03-0.05,0.05-0.09,0.08-0.14&#10;&#9;&#9;&#9;c8.79-15.05,15.87-30.83,22.14-47.08c7.3-18.9,16.42-37.01,25.78-54.98c9.88-18.96,16.5-39.22,22.78-59.53&#10;&#9;&#9;&#9;c7.39-23.88,15.32-47.61,19.8-72.34c3.94-21.76,8.19-43.51,13.61-64.93c7.36-29.05,15.48-57.92,21.54-87.28&#10;&#9;&#9;&#9;c2.17-10.52,8.36-16.76,17.42-20.8c13.59-6.06,24.67-14.91,32.68-27.54c1.08-1.7,1.77-3.63,2.79-5.51l0.21-5.47&#10;&#9;&#9;&#9;c-5.93,12.76-13.7,24.16-28.28,31.18c7.51-14.42,16.07-26.5,28.44-35.28l0.15-3.93c-0.01,0.01-0.02,0.01-0.03,0.02&#10;&#9;&#9;&#9;c-8.07,6.73-16.41,13.39-21.53,22.91c-6.68,12.43-14.35,23.81-28.54,28.72c-0.03-0.16-0.35-0.77-0.25-1.29&#10;&#9;&#9;&#9;c3.82-18.66,6.26-37.5,6.66-56.53c0.18-8.53,3.36-15.47,8.41-22.1c11.16-14.66,22.86-28.82,36.34-41.44&#10;&#9;&#9;&#9;c0.58-0.54,1.08-1.31,1.63-1.95l0.08-2.14c-0.62,0.57-1.3,1.13-2.1,1.66c-4.72,3.11-8.21,8.06-12.44,11.97&#10;&#9;&#9;&#9;c-11.38,10.55-19.47,23.87-30.06,35.72c-1-1.72-0.53-2.69-0.09-3.59c11.12-22.72,25.18-43.48,41.77-62.55&#10;&#9;&#9;&#9;c1.18-1.35,2.38-2.69,3.7-3.91l0.15-4.04c-10.29,10.89-19.82,22.44-28.3,34.8c-4.98,7.26-9.55,14.8-14.74,22.91&#10;&#9;&#9;&#9;c-0.62-1.51-0.9-1.88-0.9-2.24c0-1.03,0.04-2.07,0.2-3.08c2.58-16.63,7.12-32.59,15.4-47.42c5.01-8.97,10.63-17.75,12.73-28.07&#10;&#9;&#9;&#9;c2.65-13.04,9.55-24.07,16.6-35.02c0.41-0.64,0.81-1.48,1.29-2.2l0.13-3.48c-10.69,12.79-17.59,27.59-21.8,43.75&#10;&#9;&#9;&#9;c-0.94,3.62-2.44,7-4.13,10.34c-6.71,13.26-14.55,26.02-18.32,40.61c-1.42,5.48-2.84,10.96-4.26,16.44&#10;&#9;&#9;&#9;c-1.87-2.72-2.4-5.45-2.85-8.2c-3.73-22.88-3.61-46.19-7.65-69.02c-3.2-18.11-7.04-36.1-6.62-54.64&#10;&#9;&#9;&#9;c0.22-9.73,0.04-19.47-2.1-29.02c-4.02-17.97-7.37-36.21-22.44-49.24c-5.34-4.62-11.21-8.48-16.72-12.82&#10;&#9;&#9;&#9;c-27.15-21.35-56.69-38.51-88.77-51.32c-12.1-4.83-23.89-10.32-35.09-17.03c-1.61-0.96-3.14-3.96-5.11-1.67&#10;&#9;&#9;&#9;c-1.91,2.21,1,3.51,2.36,4.83c14.3,13.86,30.23,25.69,46.55,37c2.56,1.77,5.33,3.5,9.55,3.93c-16.97-12.01-33.81-22.6-48.92-37.96&#10;&#9;&#9;&#9;c38.64,17.29,77.26,31.03,108.62,58.4c-8.56-2.26-15.92-8.09-25.09-8.5c7.87,4.05,15.73,8.15,23.93,11.37&#10;&#9;&#9;&#9;c16.32,6.4,31.36,14.61,39.12,31.17c6.7,14.3,10.11,29.71,11.37,45.53c1.05,13.21-0.83,26.63,1.7,39.64&#10;&#9;&#9;&#9;c5.11,26.23,9.01,52.6,10.75,79.25c0.98,14.87,5.99,29.23,5.12,44.29c-0.81,14.04-1.59,28.08-2.42,42.11&#10;&#9;&#9;&#9;c-0.32,5.37-0.31,10.8-1.18,16.08c-4.86,29.59-10.3,59.08-18.05,88.08c-2.97,11.12-5.83,22.26-9,34.38&#10;&#9;&#9;&#9;c-1.23-1.6-1.95-2.15-2.13-2.84c-5.13-19.92-15.88-36.66-29.48-51.7c-19.77-21.85-38.58-44.59-66.77-56.94&#10;&#9;&#9;&#9;c-17.39-7.62-35.62-11.96-53.64-17.26c-2.91-0.86-5.85-0.76-8.36-3.14c-14.21-13.46-31.78-17.83-50.71-18.19&#10;&#9;&#9;&#9;c-1.56-0.03-3.14,0.79-4.71,1.24C141.19,708.81,141.2,709.97,142.73,711.66z M252.67,962.11c10.44,33.44,11.17,68.32,15.84,102.62&#10;&#9;&#9;&#9;C249.34,1032.6,252.96,997.06,252.67,962.11z M277.98,1082.92c-11.66-32.03-9.4-65.95-16.42-98.34&#10;&#9;&#9;&#9;C272.53,1001.91,283.75,1070.32,277.98,1082.92z M296.7,835.28c-30.77,3.55-53.11,0.22-64.58-10.2&#10;&#9;&#9;&#9;C253.47,828.35,275.9,824.52,296.7,835.28z M206.65,732.18c42.1,4.3,92.89,33.67,110.23,63.53c-6.83-5.31-14.81-8.27-22.49-11.92&#10;&#9;&#9;&#9;c-18.81-8.93-37.01-19.13-55.64-28.45c-5.94-2.97-11.04-8.41-16.99-9.73C213.55,743.8,212.03,737.42,206.65,732.18z" class="st1"/>
		<path d="M240.05,94.67c0.19,4.54,0.72,9.09,0.74,13.64c0.07,17.77-0.11,35.57,6.58,52.63&#10;&#9;&#9;&#9;c9.22,23.52,19.74,46.39,31.44,68.8c11.95,22.89,25.58,44.98,35.03,69.13c5.44,13.9,9.53,28.09,7.85,43.32&#10;&#9;&#9;&#9;c-0.45,4.11-0.86,8.23-1.06,12.35c-0.45,9.52-0.75,19.05-1.12,28.88c-4.49-1.13-3.95-5.62-8.93-6.17&#10;&#9;&#9;&#9;c17.45,21.26,23.38,46.57,32.62,71.68c1.08-3.23,0.59-5.02-0.04-6.77c-4.01-11.3-8.29-22.52-11.98-33.93&#10;&#9;&#9;&#9;c-3.32-10.27-10.16-19.5-9.01-31.13c0.87-8.85,1.86-17.74,1.82-26.61c-0.04-10.23,5.34-19.1,6.32-28.9&#10;&#9;&#9;&#9;c1.56-15.63,3.67-31.24,3.45-47.01c-0.26-18.18,1.5-36.41-2.11-54.49c-2.93-14.65-8.9-28.42-12.12-42.96&#10;&#9;&#9;&#9;c-2.73-12.3-8.81-23.08-14.75-33.94c-8.81-16.12-21.47-29.31-33.12-43.27c-1.36-1.63-2.41-3.39-3.74-4.95&#10;&#9;&#9;&#9;c-0.84-0.99-5.76-4.31-5.71-5.46c2.21,6.7,7.14,10.93,11.44,16.18c4.81,5.87,9.62,11.73,14.24,17.74&#10;&#9;&#9;&#9;c9.05,11.79,17.36,24.24,23.24,37.94c5.98,13.93,8.59,28.87,13.6,43.09c8.23,23.37,6.61,47.69,6.02,68.48&#10;&#9;&#9;&#9;c0.19,16.03-1.66,28.55-2.56,41.13c-0.18,2.5,1.08,7.08-2.54,7.08c-3.16,0-2.62-4.5-3.08-7.25c-0.2-1.21,0.01-2.48-0.1-3.72&#10;&#9;&#9;&#9;c-0.74-8.63,0.04-17.32-1.46-25.95c-3.1-17.88-12.23-33.21-20.09-49.08c-8.53-17.22-20.02-32.76-28.53-50.02&#10;&#9;&#9;&#9;c-5.51-11.18-9.11-23-13.02-34.75c-3.76-11.32-8.33-22.36-11.65-33.83c-1.58-5.48-1.89-11.77-3.88-17.04&#10;&#9;&#9;&#9;c-1.71-4.53-4.19-10.25-3.27-15.31C239.95,87.69,239.9,91.18,240.05,94.67z M245.02,118.16c3.91,12.45,9.36,24.22,13.08,36.59&#10;&#9;&#9;&#9;c4.3,14.31,9.35,28.41,17.01,41.13c13.54,22.5,26.75,45.13,37.29,69.22c4.98,11.38,7.39,23.26,6.17,36.97&#10;&#9;&#9;&#9;c-3.14-3.49-3-7.03-4.45-9.85c-11.19-21.63-22-43.47-33.64-64.86c-13.08-24.02-23.99-48.94-32.91-74.74&#10;&#9;&#9;&#9;C243.72,141.51,244.21,129.86,245.02,118.16z" class="st1"/>
		<path d="M114.21,267.91c-15.03,5.85-30.45,10.72-45,17.81c7.57-0.31,14.86-1.62,22.2-2.37&#10;&#9;&#9;&#9;c14.68-1.5,28.55-8.07,43.08-8.52c20.98-0.65,38.52-9.26,57.3-19.83c-8.98-0.6-16.65-0.13-24.35,0.27&#10;&#9;&#9;&#9;c-7.77,0.41-14.81,3.69-22.25,5.36c-7.35,1.65-14.6,3.7-21.9,5.58c27.83-11.36,56.43-17.9,86.91-13.49&#10;&#9;&#9;&#9;c-7.81-6.96-16.12-12.67-22.5-20.51c9.62,8.11,20.52,14.46,29.86,22.95c12.47,11.32,23.7,23.71,33.1,37.56&#10;&#9;&#9;&#9;c6.62,9.76,13.34,19.38,20.82,28.48c4.58,5.57,10.06,10.46,13.27,17.16c-3.49-2.95-6.42-6.39-9.41-9.77&#10;&#9;&#9;&#9;c-15.52-17.51-27.74-37.55-42.78-55.44c-9.18-10.92-19.13-19.91-34.9-15.83c-5.38,1.39-10.7,3.16-15.61,5.94&#10;&#9;&#9;&#9;c-25.54,14.42-52.13,26.12-81.49,30.01c-18.28,2.42-36.6,0.55-55.06-0.88C68.29,283.63,89.99,272.21,114.21,267.91z M67.56,289.94&#10;&#9;&#9;&#9;c19.6,3.34,50.78,0.77,76.28-12.82C118.28,280.48,93.23,287.02,67.56,289.94z" class="st1"/>
		<path d="M191.12,564.02c-15.03,5.85-30.45,10.72-45,17.81c7.57-0.31,14.86-1.62,22.2-2.37&#10;&#9;&#9;&#9;c14.68-1.5,28.55-8.07,43.08-8.52c20.98-0.65,38.52-9.26,57.3-19.83c-8.98-0.6-16.65-0.13-24.35,0.27&#10;&#9;&#9;&#9;c-7.77,0.41-14.81,3.69-22.25,5.36c-7.35,1.65-14.6,3.7-21.9,5.58c27.83-11.36,56.43-17.9,86.91-13.49&#10;&#9;&#9;&#9;c-7.81-6.96-16.12-12.67-22.5-20.51c9.62,8.11,20.52,14.46,29.86,22.95c12.47,11.32,23.7,23.71,33.1,37.56&#10;&#9;&#9;&#9;c6.62,9.76,13.34,19.38,20.82,28.48c4.58,5.57,10.06,10.46,13.27,17.16c-3.49-2.95-6.42-6.39-9.41-9.77&#10;&#9;&#9;&#9;c-15.52-17.51-27.74-37.55-42.78-55.44c-9.18-10.92-19.13-19.91-34.9-15.83c-5.38,1.39-10.7,3.16-15.61,5.94&#10;&#9;&#9;&#9;c-25.54,14.42-52.13,26.12-81.49,30.01c-18.28,2.42-36.6,0.55-55.06-0.88C145.2,579.73,166.9,568.31,191.12,564.02z&#10;&#9;&#9;&#9; M144.46,586.05c19.6,3.34,50.78,0.77,76.28-12.82C195.19,576.58,170.14,583.13,144.46,586.05z" class="st1"/>
		<path d="M163.76,215.83c-2.85-5.76-9.07-6.8-13.91-9.62c-18.31-10.71-36.58-21.59-57.25-27.4&#10;&#9;&#9;&#9;c-1.14-0.32-2.31-0.55-4.45-1.06c1.68,2.62,3.74,2.86,5.41,3.55c1.9,0.79,3.94,1.21,5.87,1.93c20.77,7.71,39.73,19,58.96,29.76&#10;&#9;&#9;&#9;c1.78,1,3.67,1.8,5.51,2.7L163.76,215.83z" class="st1"/>
		<path d="M163.91,215.69c5.1,4.92,11.07,8.59,17.25,11.97c-5.32-4.63-9.67-10.67-17.39-11.84&#10;&#9;&#9;&#9;C163.76,215.83,163.91,215.69,163.91,215.69z" class="st1"/>
	</g>
</g>
</svg>