<?xml version="1.0" encoding="utf-8"?>
<!-- Generator: Adobe Illustrator 24.2.1, SVG Export Plug-In . SVG Version: 6.00 Build 0)  -->
<svg version="1.1" id="Capa_1" xmlns="http://www.w3.org/2000/svg" xmlns:xlink="http://www.w3.org/1999/xlink" x="0px" y="0px"
	 viewBox="0 0 345 572" style="enable-background:new 0 0 345 572;" xml:space="preserve">
<style type="text/css">
	.st0{fill:#545438;}
	.st1{fill:#D9D6C3;}
	.st2{fill:#8C8C56;}
	.st3{fill:#BCB398;}
	.st4{fill:#888468;}
	.st5{fill:#9EA08D;}
	.st6{fill:#F5F9ED;}
	.st7{fill:#A57D4C;}
	.st8{fill:#9B8B7A;}
	.st9{fill:#8E998B;}
	.st10{fill:#6B7368;}
	.st11{fill:#B39976;}
	.st12{fill:#EEEDEB;}
	.st13{fill:#777751;}
	.st14{fill:#F5F9E8;}
	.st15{fill:#FBF8F2;}
	.st16{fill:#AEA79E;}
	.st17{opacity:0.5;}
	.st18{fill:url(#);}
	.st19{fill:none;stroke:#FBF8F2;stroke-miterlimit:10;}
	.st20{fill:none;stroke:#545438;stroke-width:2;stroke-miterlimit:10;}
	.st21{fill:none;stroke:#777751;stroke-width:3;stroke-miterlimit:10;}
	.st22{opacity:0.1;}
	.st23{fill:#FFFFFF;}
	.st24{opacity:0.3;}
</style>
<g>
	<g>
		<path class="st1" d="M-108.66,707.95c8.38,5.3,13.61,12.38,14.23,23.1c1.75,29.93,5.63,59.67,8.72,89.48
			c2.28,21.98,3.34,44.12,4.1,66.21c0.86,25.12,5.29,49.74,9.15,74.44c0.86,5.5,1.75,11.01,2.71,16.49
			c0.66-1.42,1.31-2.84,1.98-4.25c-2.69-14.83-4.92-29.76-7.05-44.71c-3.66-25.64-5.02-51.43-5.99-77.27
			c-0.3-8.05-1.02-16.11-2.02-24.11c-0.56-4.45,0.79-7.48,4.14-10.24c4.27-3.51,8.73-6.33,13.53-8.45c0.05-1.42,0.11-2.83,0.18-4.24
			c-3.56,1.92-6.99,4.14-10.39,6.4c-1.29,0.86-2.58,1.7-4.25,2.8c-0.12-4.24,2.39-6.76,3.83-9.57c3.16-6.17,6.71-11.89,10.73-17.17
			c-0.19-1.38-0.35-2.77-0.46-4.17c-6.43,7.91-11.86,16.6-15.95,26.34c-0.27,0.65-1.07,1.09-2.51,2.5
			c-1.39-12.45-2.61-23.89-3.95-35.32c-3.49-29.82-4.62-59.78-5.16-89.77c-0.1-5.35,0.69-10.72,1.15-16.08
			c1.2-14.01,2.46-28.01,3.68-42.02c1.31-15.02,8.35-28.52,11.46-43.09c5.58-26.12,13.23-51.65,22.07-76.87
			c4.39-12.51,4.46-26.07,7.4-38.98c3.53-15.47,9.13-30.23,17.82-43.42c10.07-15.27,26.14-21.22,43.21-25.2
			c8.58-2,16.95-4.93,25.32-7.8c-9.14-0.92-17.26,3.79-26.06,4.79c34.97-22.56,75.17-30.59,115.9-42.12
			c-17.17,13.02-35.36,21.07-53.89,30.51c4.23,0.19,7.23-1.13,10.01-2.51c17.79-8.84,35.25-18.24,51.4-29.9
			c1.53-1.11,4.6-1.98,3.03-4.44c-1.63-2.54-3.57,0.2-5.3,0.92c-12.05,5.02-24.51,8.75-37.18,11.79
			c-33.59,8.05-65.3,20.77-95.24,37.98c-6.09,3.5-12.45,6.47-18.4,10.27c-16.79,10.72-22.73,28.29-29.31,45.49
			c-3.5,9.15-5.07,18.76-6.26,28.42c-2.26,18.41-8.65,35.66-14.43,53.11c-7.29,22.01-10.53,45.09-17.53,67.19
			c-0.84,2.65-1.76,5.27-4,7.7c-0.62-5.63-1.23-11.26-1.84-16.89c-1.63-14.98-7.54-28.74-12.27-42.83
			c-1.19-3.55-2.19-7.11-2.6-10.83c-1.84-16.6-6.53-32.24-15.26-46.44l-0.37,3.46c0.37,0.78,0.65,1.67,0.96,2.36
			c5.4,11.85,10.63,23.76,11.37,37.04c0.59,10.51,4.88,20.01,8.54,29.61c6.06,15.87,8.25,32.31,8.4,49.14
			c0.01,1.03-0.1,2.06-0.25,3.08c-0.05,0.36-0.38,0.68-1.22,2.09c-3.97-8.77-7.4-16.89-11.29-24.79
			c-6.61-13.45-14.37-26.26-22.98-38.52l-0.43,4.02c1.12,1.39,2.13,2.89,3.09,4.4c13.67,21.26,24.59,43.84,32.31,67.93
			c0.31,0.96,0.63,1.98-0.61,3.54c-8.77-13.26-14.86-27.6-24.6-39.68c-3.62-4.49-6.35-9.89-10.58-13.64
			c-0.72-0.64-1.31-1.29-1.84-1.94l-0.23,2.13c0.45,0.71,0.84,1.55,1.33,2.16c11.51,14.43,21.04,30.13,29.98,46.25
			c4.04,7.29,6.19,14.61,5.14,23.08c-2.35,18.9-2.65,37.89-1.56,56.9c0.03,0.53-0.37,1.09-0.43,1.24
			c-13.33-6.9-19.28-19.27-24.1-32.53c-3.69-10.15-10.98-17.94-18-25.77c-0.01-0.01-0.01-0.02-0.02-0.03l-0.42,3.91
			c10.97,10.47,17.69,23.66,23.05,39.01c-13.42-9.06-19.46-21.46-23.49-34.94l-0.59,5.44c0.74,2,1.15,4.02,1.97,5.85
			C-130.92,689.63-121.24,699.99-108.66,707.95z"/>
		<path class="st1" d="M145.02,63.98c0.18,5.14-3.1,10.44-5.44,14.68c-2.72,4.93-3.94,11.11-6.3,16.3
			c-4.93,10.87-11.05,21.14-16.4,31.79c-5.56,11.06-10.83,22.24-17.89,32.51c-10.91,15.85-24.52,29.57-35.45,45.38
			c-10.07,14.57-21.31,28.43-26.96,45.67c-2.73,8.33-3.21,17.03-5.19,25.47c-0.28,1.2-0.26,2.49-0.64,3.66
			c-0.85,2.65-0.97,7.18-4.09,6.73c-3.58-0.52-1.67-4.87-1.49-7.37c0.92-12.58,0.9-25.23,3.4-41.07
			c2.41-20.65,4.32-44.96,15.83-66.89c7.01-13.35,11.75-27.75,19.67-40.68c7.79-12.71,17.81-23.83,28.47-34.19
			c5.44-5.29,11.05-10.39,16.65-15.5c5.01-4.57,10.5-8.05,13.65-14.36c-0.12,1.14-5.47,3.72-6.44,4.58
			c-1.54,1.36-2.84,2.95-4.41,4.36C98.45,87.19,84.02,98.42,72.97,113.1c-7.44,9.89-15.02,19.68-19.49,31.46
			c-5.28,13.92-13.18,26.68-18.19,40.76c-6.19,17.37-7.08,35.66-9.95,53.61c-2.49,15.58-2.66,31.33-3.37,47.02
			c-0.45,9.84,3.6,19.39,2.08,29.51c-1.32,8.77-1.62,17.71-2.03,26.6c-0.55,11.67-8.64,19.82-13.41,29.51
			C3.32,382.32-2.54,392.8-8.14,403.4c-0.87,1.65-1.62,3.35-1.01,6.7c12.77-23.52,22.29-47.71,42.62-66.23
			c-5.01-0.17-5.12,4.35-9.73,4.82c1.05-9.78,2.13-19.25,3.06-28.74c0.4-4.11,0.59-8.25,0.73-12.37
			c0.54-15.31,6.63-28.76,14.02-41.73c12.84-22.54,29.51-42.43,44.64-63.36c14.82-20.49,28.52-41.6,41.04-63.55
			c9.08-15.91,11.47-33.56,14.1-51.13c0.67-4.51,1.86-8.93,2.7-13.39C144.69,70.99,145.14,67.52,145.02,63.98z M128.24,130.69
			c-12.55,24.24-26.94,47.32-43.35,69.21c-14.61,19.48-28.45,39.53-42.64,59.33c-1.85,2.57-2.21,6.1-5.83,9.1
			c0.77-13.75,4.87-25.15,11.44-35.7c13.91-22.31,30.24-42.8,46.88-63.11c9.41-11.49,16.44-24.71,22.77-38.25
			c5.47-11.7,12.56-22.57,18.22-34.32C134.85,108.64,133.65,120.23,128.24,130.69z"/>
		<path class="st1" d="M308.04,298.13c-18.47-1.25-36.87-2.04-54.61-7.07c-28.5-8.09-53.12-23.49-76.31-41.45
			c-4.46-3.45-9.47-5.98-14.59-8.13c-15.02-6.31-26.16,1.15-36.82,10.63c-17.46,15.53-32.45,33.6-50.33,48.69
			c-3.45,2.91-6.85,5.89-10.72,8.31c4.14-6.17,10.26-10.21,15.6-15.06c8.72-7.92,16.75-16.47,24.71-25.18
			c11.29-12.35,24.2-22.98,38.17-32.39c10.47-7.05,22.17-11.76,32.86-18.4c-7.45,6.83-16.49,11.28-25.23,17.05
			c30.79,0.02,58.15,10.62,84.05,25.88c-6.95-2.91-13.84-5.98-20.87-8.68c-7.12-2.73-13.61-6.99-21.24-8.52
			c-7.56-1.51-15.09-3.08-24.06-3.78c17.07,13.16,33.18,24.21,53.85,27.89c14.31,2.54,27.1,11.05,41.41,14.64
			c7.16,1.8,14.18,4.15,21.63,5.55c-13.38-9.12-27.93-16.16-41.96-24.12C266.92,271.74,286.75,286.17,308.04,298.13z M212.93,268.84
			c23.27,17.13,53.75,24.17,73.63,23.69C261.58,285.94,237.74,275.85,212.93,268.84z"/>
		<path class="st1" d="M202.06,205.32c3.65-5.29,9.96-5.42,15.15-7.52c19.66-7.95,39.31-16.09,60.6-18.86
			c1.18-0.15,2.37-0.21,4.56-0.4c-2.05,2.35-4.12,2.29-5.87,2.74c-1.99,0.5-4.07,0.63-6.09,1.06
			c-21.66,4.63-42.06,13.07-62.64,20.94c-1.91,0.73-3.89,1.26-5.84,1.88L202.06,205.32z"/>
		<path class="st1" d="M201.93,205.16c-5.75,4.13-12.2,6.9-18.79,9.36c5.93-3.81,11.11-9.17,18.91-9.21
			C202.06,205.32,201.93,205.16,201.93,205.16z"/>
	</g>
</g>
</svg>
